<svg xmlns="http://www.w3.org/2000/svg" width="1440" height="900" viewBox="0 0 1440 900" fill="none">
<path fill-rule="evenodd" clip-rule="evenodd" d="M1440 0H0V729.619V729.64V843.206L34.8 847.939C68.4 852.672 136.8 862.138 205.2 866.87C274.8 871.603 343.2 871.603 411.6 852.672C445.8 843.206 480 829.008 514.2 814.81C548.4 800.611 582.6 786.413 616.8 776.947C685.2 758.016 754.8 758.016 823.2 776.947C853.6 785.361 884 797.514 914.4 809.668C952.4 824.859 990.4 840.051 1028.4 847.939C1071.14 856.811 1113.88 856.444 1156.91 856.074C1182.75 855.852 1208.69 855.629 1234.8 857.405C1303.2 862.138 1371.6 881.069 1405.2 890.534L1440 900V729.64V729.619V0Z" fill="url(#paint0_linear_59_4)"/>
<defs>
<linearGradient id="paint0_linear_59_4" x1="720" y1="0" x2="720" y2="729.623" gradientUnits="userSpaceOnUse">
<stop offset="0.185314" stop-color="#3C2A68"/>
<stop offset="1" stop-color="#3C0FAB"/>
</linearGradient>
</defs>
</svg>